<?xml version="1.0" encoding="UTF-8" standalone="no"?><svg xmlns="http://www.w3.org/2000/svg" xmlns:xlink="http://www.w3.org/1999/xlink" contentStyleType="text/css" height="391px" preserveAspectRatio="none" style="width:340px;height:391px;background:#FFFFFF;" version="1.1" viewBox="0 0 340 391" width="340px" zoomAndPan="magnify"><defs/><g><!--MD5=[28b08b95442adb0ca754d299edce9224]
cluster Rendez-vous--><g id="cluster_Rendez-vous"><rect height="378" rx="2.5" ry="2.5" style="stroke:#181818;stroke-width:1.0;fill:none;" width="191" x="143" y="7"/><text fill="#000000" font-family="sans-serif" font-size="14" font-weight="bold" lengthAdjust="spacing" textLength="102" x="187.5" y="21.9951">Rendez-vous</text></g><g id="elem_ajouter-rendez"><ellipse cx="238.3844" cy="59.9769" fill="#F1F1F1" rx="75.3844" ry="17.4769" style="stroke:#181818;stroke-width:0.5;"/><text fill="#000000" font-family="sans-serif" font-size="14" lengthAdjust="spacing" textLength="107" x="181.8844" y="63.7244">ajouter-rendez</text></g><g id="elem_modifier-rendez"><ellipse cx="238.3735" cy="212.7747" fill="#F1F1F1" rx="79.3735" ry="18.2747" style="stroke:#181818;stroke-width:0.5;"/><text fill="#000000" font-family="sans-serif" font-size="14" lengthAdjust="spacing" textLength="117" x="177.9676" y="216.2248">modifier-rendez</text></g><g id="elem_annuler-rendez"><ellipse cx="238.6676" cy="284.1335" fill="#F1F1F1" rx="76.1676" ry="17.6335" style="stroke:#181818;stroke-width:0.5;"/><text fill="#000000" font-family="sans-serif" font-size="14" lengthAdjust="spacing" textLength="109" x="181.1676" y="287.8811">annuler-rendez</text></g><g id="elem_authentif"><ellipse cx="238.5664" cy="143.7722" fill="#F1F1F1" rx="60.0664" ry="14.7722" style="stroke:#181818;stroke-width:0.5;"/><text fill="#000000" font-family="sans-serif" font-size="14" lengthAdjust="spacing" textLength="67" x="202.0664" y="147.5198">authentif</text></g><g id="elem_CRUD client"><ellipse cx="238.6678" cy="352.8336" fill="#F1F1F1" rx="67.1678" ry="15.8336" style="stroke:#181818;stroke-width:0.5;"/><text fill="#000000" font-family="sans-serif" font-size="14" lengthAdjust="spacing" textLength="85" x="193.1678" y="356.5811">CRUD client</text></g><!--MD5=[4a65e84059005d12693a083370a06717]
entity client--><g id="elem_client"><ellipse cx="28" cy="53.5" fill="#F1F1F1" rx="8" ry="8" style="stroke:#181818;stroke-width:0.5;"/><path d="M28,61.5 L28,88.5 M15,69.5 L41,69.5 M28,88.5 L15,103.5 M28,88.5 L41,103.5 " fill="none" style="stroke:#181818;stroke-width:0.5;"/><text fill="#000000" font-family="sans-serif" font-size="14" lengthAdjust="spacing" textLength="41" x="7.5" y="117.9951">client</text></g><!--MD5=[79a439086b036a57b90a01d7b2f8bbd1]
entity admin--><g id="elem_admin"><ellipse cx="28" cy="220.5" fill="#F1F1F1" rx="8" ry="8" style="stroke:#181818;stroke-width:0.5;"/><path d="M28,228.5 L28,255.5 M15,236.5 L41,236.5 M28,255.5 L15,270.5 M28,255.5 L41,270.5 " fill="none" style="stroke:#181818;stroke-width:0.5;"/><text fill="#000000" font-family="sans-serif" font-size="14" lengthAdjust="spacing" textLength="44" x="6" y="284.9951">admin</text></g><!--MD5=[2f6435d90ae8629499e3e01c4b7fa6d7]
link client to ajouter-rendez--><g id="link_client_ajouter-rendez"><path d="M48.6152,80.836 C76.1887,77.795 127.774,72.104 170.076,67.438 " fill="none" id="client-ajouter-rendez" style="stroke:#181818;stroke-width:1.0;"/></g><!--MD5=[ebca728516b9e60a1c3a64fba0c8d1c1]
link client to modifier-rendez--><g id="link_client_modifier-rendez"><path d="M48.8576,99.764 C68.8962,116.834 100.57,144.238 127,169 C130.669,172.438 130.744,174.322 135,177 C150.006,186.441 167.812,193.803 184.338,199.339 " fill="none" id="client-modifier-rendez" style="stroke:#181818;stroke-width:1.0;"/></g><!--MD5=[ee31d295ded1bf455d2f2253d5969e50]
link admin to annuler-rendez--><g id="link_admin_annuler-rendez"><path d="M50.1395,253.447 C79.3346,258.208 133.207,266.993 175.717,273.925 " fill="none" id="admin-annuler-rendez" style="stroke:#181818;stroke-width:1.0;"/></g><!--MD5=[e89b52db7e95598edc9037e68e727867]
link admin to modifier-rendez--><g id="link_admin_modifier-rendez"><path d="M50.1395,246.249 C79.1276,241.104 132.444,231.643 174.811,224.125 " fill="none" id="admin-modifier-rendez" style="stroke:#181818;stroke-width:1.0;"/></g><!--MD5=[67bc48174b50720dc43c7de416bd1f53]
link admin to authentif--><g id="link_admin_authentif"><path d="M44.8647,211.772 C53.1268,196.45 64.7415,180.072 80,170 C108.912,150.916 147.14,144.27 178.694,142.465 " fill="none" id="admin-authentif" style="stroke:#181818;stroke-width:1.0;"/></g><!--MD5=[7e6a8d233df7603a5375956ac55d4032]
link ajouter-rendez to authentif--><g id="link_ajouter-rendez_authentif"><path d="M238.5,77.502 C238.5,90.939 238.5,109.519 238.5,123.624 " fill="none" id="ajouter-rendez-to-authentif" style="stroke:#181818;stroke-width:1.0;stroke-dasharray:7.0,7.0;"/><polygon fill="#181818" points="238.5,128.982,242.5,119.982,238.5,123.982,234.5,119.982,238.5,128.982" style="stroke:#181818;stroke-width:1.0;"/><text fill="#000000" font-family="sans-serif" font-size="13" lengthAdjust="spacing" textLength="45" x="204.5" y="107.8169">include</text></g><!--MD5=[471bfc623d3e5b3bcc68d5c2ec173c95]
link modifier-rendez to ajouter-rendez--><g id="link_modifier-rendez_ajouter-rendez"><path d="M164.973,220.195 C141.459,218.376 117.528,211.404 102,193.5 C81.4191,169.77 94.7285,151.977 135,112 C150.525,96.589 171.544,84.886 190.585,76.522 " fill="none" id="modifier-rendez-to-ajouter-rendez" style="stroke:#181818;stroke-width:1.0;stroke-dasharray:7.0,7.0;"/><polygon fill="#181818" points="195.379,74.467,185.531,74.3364,190.7834,76.4369,188.6829,81.6894,195.379,74.467" style="stroke:#181818;stroke-width:1.0;"/><text fill="#000000" font-family="sans-serif" font-size="13" lengthAdjust="spacing" textLength="45" x="81" y="189.5669">include</text></g><!--MD5=[3f1b3fd8df37bb5173a682d88fb56114]
link CRUD client to admin--><g id="link_CRUD client_admin"><path d="M193.39,341.0889 C174.924,335.4126 153.498,327.905 135,319 C103.9376,304.0464 71.1071,281.482 50.3602,266.267 " fill="none" id="CRUD client-admin" style="stroke:#181818;stroke-width:1.0;"/></g><!--MD5=[0a5ff89783b8252b9edb93a5e3ba8468]
@startuml
left to right direction
skinparam packageStyle rectangle
actor client
actor admin
rectangle Rendez-vous {
    client - - (ajouter-rendez)
    client - - (modifier-rendez)
    admin - - (annuler-rendez)
    admin - - (modifier-rendez)
    admin - - (authentif)
    (ajouter-rendez) .> (authentif) : include
    (modifier-rendez) .> (ajouter-rendez) : include
    (CRUD client) - - admin
}
@enduml

PlantUML version 1.2022.3beta2(Unknown compile time)
(GPL source distribution)
Java Runtime: Java(TM) SE Runtime Environment
JVM: Java HotSpot(TM) 64-Bit Server VM
Default Encoding: UTF-8
Language: en
Country: US
--></g></svg>